<?xml version="1.0" encoding="UTF-8"?>
<!DOCTYPE svg PUBLIC "-//W3C//DTD SVG 1.1//EN" "http://www.w3.org/Graphics/SVG/1.1/DTD/svg11.dtd">
<svg version="1.2" width="140mm" height="140mm" viewBox="0 0 14000 14000" preserveAspectRatio="xMidYMid" fill-rule="evenodd" stroke-width="28.222" stroke-linejoin="round" xmlns="http://www.w3.org/2000/svg" xmlns:ooo="http://xml.openoffice.org/svg/export" xmlns:xlink="http://www.w3.org/1999/xlink" xmlns:presentation="http://sun.com/xmlns/staroffice/presentation" xmlns:smil="http://www.w3.org/2001/SMIL20/" xmlns:anim="urn:oasis:names:tc:opendocument:xmlns:animation:1.0" xmlns:svg="urn:oasis:names:tc:opendocument:xmlns:svg-compatible:1.0" xml:space="preserve">
 <defs class="ClipPathGroup">
  <clipPath id="presentation_clip_path" clipPathUnits="userSpaceOnUse">
   <rect x="0" y="0" width="14000" height="14000"/>
  </clipPath>
  <clipPath id="presentation_clip_path_shrink" clipPathUnits="userSpaceOnUse">
   <rect x="14" y="14" width="13972" height="13972"/>
  </clipPath>
 </defs>
 <defs class="TextShapeIndex">
  <g ooo:slide="id1" ooo:id-list="id3 id4 id5 id6 id7 id8 id9 id10 id11 id12 id13 id14 id15"/>
 </defs>
 <defs class="EmbeddedBulletChars">
  <g id="bullet-char-template-57356" transform="scale(0.00048828125,-0.00048828125)">
   <path d="M 580,1141 L 1163,571 580,0 -4,571 580,1141 Z"/>
  </g>
  <g id="bullet-char-template-57354" transform="scale(0.00048828125,-0.00048828125)">
   <path d="M 8,1128 L 1137,1128 1137,0 8,0 8,1128 Z"/>
  </g>
  <g id="bullet-char-template-10146" transform="scale(0.00048828125,-0.00048828125)">
   <path d="M 174,0 L 602,739 174,1481 1456,739 174,0 Z M 1358,739 L 309,1346 659,739 1358,739 Z"/>
  </g>
  <g id="bullet-char-template-10132" transform="scale(0.00048828125,-0.00048828125)">
   <path d="M 2015,739 L 1276,0 717,0 1260,543 174,543 174,936 1260,936 717,1481 1274,1481 2015,739 Z"/>
  </g>
  <g id="bullet-char-template-10007" transform="scale(0.00048828125,-0.00048828125)">
   <path d="M 0,-2 C -7,14 -16,27 -25,37 L 356,567 C 262,823 215,952 215,954 215,979 228,992 255,992 264,992 276,990 289,987 310,991 331,999 354,1012 L 381,999 492,748 772,1049 836,1024 860,1049 C 881,1039 901,1025 922,1006 886,937 835,863 770,784 769,783 710,716 594,584 L 774,223 C 774,196 753,168 711,139 L 727,119 C 717,90 699,76 672,76 641,76 570,178 457,381 L 164,-76 C 142,-110 111,-127 72,-127 30,-127 9,-110 8,-76 1,-67 -2,-52 -2,-32 -2,-23 -1,-13 0,-2 Z"/>
  </g>
  <g id="bullet-char-template-10004" transform="scale(0.00048828125,-0.00048828125)">
   <path d="M 285,-33 C 182,-33 111,30 74,156 52,228 41,333 41,471 41,549 55,616 82,672 116,743 169,778 240,778 293,778 328,747 346,684 L 369,508 C 377,444 397,411 428,410 L 1163,1116 C 1174,1127 1196,1133 1229,1133 1271,1133 1292,1118 1292,1087 L 1292,965 C 1292,929 1282,901 1262,881 L 442,47 C 390,-6 338,-33 285,-33 Z"/>
  </g>
  <g id="bullet-char-template-9679" transform="scale(0.00048828125,-0.00048828125)">
   <path d="M 813,0 C 632,0 489,54 383,161 276,268 223,411 223,592 223,773 276,916 383,1023 489,1130 632,1184 813,1184 992,1184 1136,1130 1245,1023 1353,916 1407,772 1407,592 1407,412 1353,268 1245,161 1136,54 992,0 813,0 Z"/>
  </g>
  <g id="bullet-char-template-8226" transform="scale(0.00048828125,-0.00048828125)">
   <path d="M 346,457 C 273,457 209,483 155,535 101,586 74,649 74,723 74,796 101,859 155,911 209,963 273,989 346,989 419,989 480,963 531,910 582,859 608,796 608,723 608,648 583,586 532,535 482,483 420,457 346,457 Z"/>
  </g>
  <g id="bullet-char-template-8211" transform="scale(0.00048828125,-0.00048828125)">
   <path d="M -4,459 L 1135,459 1135,606 -4,606 -4,459 Z"/>
  </g>
  <g id="bullet-char-template-61548" transform="scale(0.00048828125,-0.00048828125)">
   <path d="M 173,740 C 173,903 231,1043 346,1159 462,1274 601,1332 765,1332 928,1332 1067,1274 1183,1159 1299,1043 1357,903 1357,740 1357,577 1299,437 1183,322 1067,206 928,148 765,148 601,148 462,206 346,322 231,437 173,577 173,740 Z"/>
  </g>
 </defs>
 <g>
  <g id="id2" class="Master_Slide">
   <g id="bg-id2" class="Background"/>
   <g id="bo-id2" class="BackgroundObjects"/>
  </g>
 </g>
 <g class="SlideGroup">
  <g>
   <g id="container-id1">
    <g id="id1" class="Slide" clip-path="url(#presentation_clip_path)">
     <g class="Page">
      <g class="Group">
       <g class="com.sun.star.drawing.PolyPolygonShape">
        <g id="id3">
         <rect class="BoundingBox" stroke="none" fill="none" x="394" y="3143" width="6713" height="9964"/>
         <path fill="none" stroke="rgb(0,0,0)" stroke-width="212" stroke-linejoin="round" d="M 500,10750 L 500,3250 7000,5500 7000,13000 500,10750 Z"/>
        </g>
       </g>
       <g class="com.sun.star.drawing.CustomShape">
        <g id="id4">
         <rect class="BoundingBox" stroke="none" fill="none" x="394" y="894" width="13214" height="4715"/>
         <path fill="none" stroke="rgb(0,0,0)" stroke-width="212" stroke-linejoin="round" d="M 7000,1000 L 13501,3250 7000,5501 500,3250 7000,1000 7000,1000 Z"/>
        </g>
       </g>
       <g class="com.sun.star.drawing.PolyPolygonShape">
        <g id="id5">
         <rect class="BoundingBox" stroke="none" fill="none" x="6894" y="3143" width="6713" height="9964"/>
         <path fill="none" stroke="rgb(0,0,0)" stroke-width="212" stroke-linejoin="round" d="M 13500,10750 L 13500,3250 7000,5500 7000,13000 13500,10750 Z"/>
        </g>
       </g>
       <g class="Group">
        <g class="com.sun.star.drawing.ClosedBezierShape">
         <g id="id6">
          <rect class="BoundingBox" stroke="none" fill="none" x="3925" y="3080" width="2991" height="1218"/>
          <path fill="rgb(0,0,0)" stroke="none" d="M 6609,4296 L 3926,3292 C 3971,3264 4028,3236 4098,3210 4168,3184 4235,3163 4299,3146 4527,3086 4772,3068 5036,3090 5300,3113 5588,3182 5900,3299 6116,3379 6263,3452 6343,3517 6423,3582 6441,3640 6396,3691 6352,3742 6253,3788 6102,3828 L 5970,3863 6915,4216 6609,4296 Z M 5510,3690 L 5637,3657 C 5723,3634 5783,3610 5817,3584 5851,3559 5851,3529 5816,3497 5781,3464 5703,3425 5582,3380 5467,3337 5362,3308 5268,3293 5174,3277 5086,3272 5005,3278 4925,3283 4849,3295 4777,3314 4746,3322 4718,3331 4694,3340 4670,3348 4649,3356 4633,3362 L 5510,3690 Z"/>
         </g>
        </g>
        <g class="com.sun.star.drawing.ClosedBezierShape">
         <g id="id7">
          <rect class="BoundingBox" stroke="none" fill="none" x="5293" y="2574" width="3980" height="1352"/>
          <path fill="rgb(0,0,0)" stroke="none" d="M 8020,3925 C 7111,3585 6202,3244 5293,2904 5395,2878 5497,2851 5599,2824 5957,2958 6315,3092 6674,3226 6887,3170 7100,3114 7314,3057 6955,2923 6597,2789 6239,2655 6341,2628 6443,2602 6545,2575 7454,2915 8363,3255 9272,3595 9170,3622 9068,3649 8966,3676 8569,3527 8171,3378 7774,3230 7561,3286 7347,3342 7134,3398 7531,3547 7929,3696 8326,3844 8224,3871 8122,3898 8020,3925 Z"/>
         </g>
        </g>
        <g class="com.sun.star.drawing.ClosedBezierShape">
         <g id="id8">
          <rect class="BoundingBox" stroke="none" fill="none" x="6955" y="2283" width="2991" height="1217"/>
          <path fill="rgb(0,0,0)" stroke="none" d="M 9639,3499 L 6955,2494 C 7000,2466 7058,2439 7128,2413 7198,2387 7265,2365 7329,2348 7556,2289 7802,2270 8066,2292 8330,2315 8618,2384 8930,2501 9145,2582 9293,2654 9373,2719 9453,2784 9470,2843 9426,2894 9381,2945 9283,2990 9131,3030 L 9000,3065 9944,3418 9639,3499 Z M 8539,2892 L 8666,2859 C 8753,2836 8813,2812 8847,2786 8881,2761 8880,2732 8845,2699 8810,2666 8732,2628 8612,2583 8496,2539 8391,2510 8297,2495 8203,2479 8116,2474 8035,2480 7954,2485 7878,2497 7807,2516 7776,2524 7748,2533 7724,2542 7699,2551 7679,2558 7662,2564 L 8539,2892 Z"/>
         </g>
        </g>
       </g>
       <g class="Group">
        <g class="com.sun.star.drawing.ClosedBezierShape">
         <g id="id9">
          <rect class="BoundingBox" stroke="none" fill="none" x="1335" y="6466" width="1659" height="2218"/>
          <path fill="rgb(0,0,0)" stroke="none" d="M 1335,8035 C 1341,7905 1348,7771 1356,7631 1364,7491 1373,7352 1382,7213 1391,7073 1402,6940 1413,6813 1425,6685 1438,6570 1453,6467 L 1732,6576 C 1763,6645 1796,6728 1832,6822 1868,6917 1906,7019 1946,7128 1986,7236 2025,7346 2064,7456 2103,7566 2138,7667 2170,7760 2204,7693 2239,7619 2278,7539 2316,7459 2355,7381 2395,7303 2434,7225 2473,7153 2510,7087 2547,7021 2579,6964 2608,6918 L 2875,7022 C 2890,7137 2903,7262 2914,7399 2926,7535 2936,7677 2946,7823 2955,7970 2964,8116 2972,8262 2980,8408 2986,8548 2992,8682 L 2704,8570 C 2699,8448 2695,8324 2690,8196 2685,8068 2679,7938 2672,7806 2666,7674 2657,7544 2647,7416 2629,7455 2606,7500 2580,7552 2554,7604 2526,7660 2497,7719 2467,7778 2438,7837 2410,7895 2382,7953 2355,8007 2331,8058 2306,8109 2286,8153 2270,8188 L 2058,8105 C 2040,8057 2020,7997 1996,7927 1972,7858 1945,7782 1917,7702 1888,7622 1859,7540 1830,7459 1801,7377 1773,7299 1747,7227 1721,7155 1699,7092 1680,7038 1670,7158 1661,7282 1654,7409 1647,7535 1641,7661 1637,7785 1632,7909 1628,8030 1624,8148 L 1335,8035 Z"/>
         </g>
        </g>
        <g class="com.sun.star.drawing.ClosedBezierShape">
         <g id="id10">
          <rect class="BoundingBox" stroke="none" fill="none" x="3152" y="7130" width="1477" height="1960"/>
          <path fill="rgb(0,0,0)" stroke="none" d="M 3749,8978 C 3692,8827 3637,8672 3584,8515 3530,8357 3478,8199 3427,8039 3375,7879 3327,7723 3281,7570 3236,7417 3193,7271 3152,7131 L 3480,7259 C 3512,7373 3545,7493 3581,7618 3616,7743 3652,7867 3687,7992 3722,8116 3758,8235 3794,8349 3830,8463 3864,8567 3896,8660 3928,8592 3962,8515 3997,8428 4032,8342 4068,8251 4104,8155 4141,8058 4176,7962 4212,7865 4247,7767 4281,7674 4313,7584 L 4627,7707 C 4587,7815 4544,7928 4498,8045 4452,8162 4404,8281 4354,8400 4303,8519 4251,8637 4197,8753 4142,8869 4088,8981 4033,9088 L 3749,8978 Z"/>
         </g>
        </g>
        <g class="com.sun.star.drawing.ClosedBezierShape">
         <g id="id11">
          <rect class="BoundingBox" stroke="none" fill="none" x="4716" y="7938" width="1227" height="1825"/>
          <path fill="rgb(0,0,0)" stroke="none" d="M 5452,9676 C 5297,9615 5165,9531 5055,9423 4945,9315 4861,9186 4803,9038 4745,8890 4717,8726 4717,8548 4717,8414 4736,8303 4774,8213 4812,8123 4865,8055 4933,8009 5001,7964 5081,7940 5172,7938 5263,7937 5361,7956 5467,7998 5551,8030 5624,8067 5686,8106 5748,8146 5799,8183 5839,8217 5878,8252 5906,8278 5922,8297 L 5835,8521 C 5792,8478 5740,8435 5679,8392 5619,8348 5549,8312 5471,8281 5389,8249 5314,8240 5247,8253 5179,8266 5126,8306 5085,8373 5045,8439 5024,8536 5024,8663 5024,8772 5040,8875 5071,8971 5102,9068 5151,9154 5219,9229 5286,9304 5372,9363 5478,9404 5577,9443 5657,9464 5716,9467 5775,9470 5823,9468 5859,9462 L 5942,9753 C 5900,9763 5837,9764 5752,9756 5667,9747 5567,9721 5452,9676 Z"/>
         </g>
        </g>
       </g>
       <g class="Group">
        <g class="com.sun.star.drawing.ClosedBezierShape">
         <g id="id12">
          <rect class="BoundingBox" stroke="none" fill="none" x="7840" y="7893" width="1220" height="1856"/>
          <path fill="rgb(0,0,0)" stroke="none" d="M 7841,9747 L 7841,8159 C 7911,8119 7986,8082 8063,8049 8141,8015 8212,7987 8275,7966 8499,7889 8671,7873 8789,7919 8907,7965 8966,8076 8966,8253 8966,8368 8941,8469 8889,8558 8838,8646 8765,8726 8671,8797 8701,8825 8732,8859 8767,8899 8801,8938 8836,8981 8870,9029 8905,9076 8938,9125 8971,9176 9003,9227 9032,9278 9059,9330 L 8724,9444 C 8686,9383 8646,9323 8604,9263 8562,9204 8521,9148 8480,9095 8438,9042 8399,8999 8361,8964 8355,8966 8349,8968 8344,8970 8339,8973 8334,8975 8330,8976 L 8143,9041 8143,9644 7841,9747 Z M 8143,8787 L 8264,8745 C 8352,8715 8425,8683 8483,8648 8541,8613 8584,8573 8613,8525 8641,8478 8656,8422 8656,8357 8656,8295 8641,8250 8613,8224 8584,8197 8542,8185 8487,8189 8432,8192 8368,8206 8295,8232 8262,8243 8234,8254 8209,8264 8184,8275 8162,8285 8143,8293 L 8143,8787 Z"/>
         </g>
        </g>
        <g class="com.sun.star.drawing.ClosedBezierShape">
         <g id="id13">
          <rect class="BoundingBox" stroke="none" fill="none" x="9286" y="7295" width="1052" height="1958"/>
          <path fill="rgb(0,0,0)" stroke="none" d="M 9286,9252 C 9286,8714 9286,8176 9286,7638 9619,7524 9951,7410 10284,7296 10284,7385 10284,7474 10284,7563 10052,7643 9820,7722 9588,7802 9588,7925 9588,8049 9588,8172 9794,8101 10001,8031 10207,7960 10207,8048 10207,8136 10207,8223 10001,8294 9794,8365 9588,8435 9588,8584 9588,8732 9588,8880 9838,8795 10087,8709 10337,8624 10337,8713 10337,8802 10337,8892 9987,9012 9636,9132 9286,9252 Z"/>
         </g>
        </g>
        <g class="com.sun.star.drawing.ClosedBezierShape">
         <g id="id14">
          <rect class="BoundingBox" stroke="none" fill="none" x="10495" y="6934" width="1087" height="1833"/>
          <path fill="rgb(0,0,0)" stroke="none" d="M 10993,8700 C 10862,8744 10756,8766 10675,8766 10593,8765 10533,8759 10495,8749 L 10583,8465 C 10624,8476 10679,8480 10746,8479 10814,8478 10896,8460 10993,8427 11096,8392 11168,8350 11209,8301 11250,8252 11270,8198 11270,8139 11270,8092 11258,8058 11234,8036 11210,8014 11173,7999 11125,7991 11077,7982 11016,7978 10942,7976 10872,7973 10805,7963 10741,7949 10677,7934 10625,7904 10586,7859 10546,7813 10526,7742 10526,7646 10526,7548 10548,7457 10593,7372 10638,7286 10701,7211 10783,7145 10864,7079 10961,7027 11072,6988 11171,6955 11257,6937 11331,6935 11405,6933 11466,6937 11513,6949 L 11422,7232 C 11380,7222 11331,7217 11277,7218 11223,7218 11160,7231 11088,7256 11002,7285 10939,7321 10897,7363 10855,7405 10834,7457 10834,7517 10834,7561 10847,7592 10872,7611 10897,7631 10931,7644 10973,7650 11016,7656 11063,7661 11116,7663 11218,7667 11302,7678 11371,7697 11439,7715 11491,7750 11527,7800 11563,7851 11581,7928 11581,8032 11581,8130 11559,8221 11515,8306 11471,8391 11405,8467 11318,8534 11230,8600 11122,8655 10993,8700 Z"/>
         </g>
        </g>
        <g class="com.sun.star.drawing.ClosedBezierShape">
         <g id="id15">
          <rect class="BoundingBox" stroke="none" fill="none" x="11676" y="6395" width="1235" height="1879"/>
          <path fill="rgb(0,0,0)" stroke="none" d="M 12143,8272 C 12143,7824 12143,7376 12143,6928 11988,6982 11832,7035 11677,7088 11677,6998 11677,6908 11677,6818 12088,6677 12499,6536 12910,6395 12910,6486 12910,6576 12910,6666 12754,6719 12598,6772 12443,6826 12443,7274 12443,7722 12443,8170 12343,8204 12243,8238 12143,8272 Z"/>
         </g>
        </g>
       </g>
      </g>
     </g>
    </g>
   </g>
  </g>
 </g>
</svg>